<?xml version="1.0" encoding="utf-8"?>
<!-- Generator: Adobe Illustrator 15.1.0, SVG Export Plug-In . SVG Version: 6.00 Build 0)  -->
<!DOCTYPE svg PUBLIC "-//W3C//DTD SVG 1.1//EN" "http://www.w3.org/Graphics/SVG/1.1/DTD/svg11.dtd">
<svg version="1.1" id="Layer_1" xmlns="http://www.w3.org/2000/svg" xmlns:xlink="http://www.w3.org/1999/xlink" x="0px" y="0px"
	 width="105px" height="105px" viewBox="-3.728 -2.788 105 105" enable-background="new -3.728 -2.788 105 105"
	 xml:space="preserve">
<path fill="#993CF5" d="M65.99,25.946h12.627l-5.909,31.979c-0.537,2.286-1.748,7.394,0.943,7.394
	c5.646,0,12.497-6.051,12.497-20.429c0-21.506-14.787-32.526-35.218-32.526c-22.304,0-36.553,15.723-36.553,37.772
	c0,23.516,16.128,37.495,38.836,37.495c10.082,0,18.826-2.961,25.401-7.93h13.176C82.252,92.875,68.54,100,52.147,100
	C23.517,100,0,79.3,0,50.134C0,21.504,22.98,0,51.337,0c23.656,0,46.771,15.73,46.771,40.594c0,30.776-25.271,38.836-33.192,38.836
	c-4.979,0-8.198-2.285-8.337-6.578h-0.265c-2.692,3.625-6.861,6.717-12.904,6.717c-11.564,0-22.184-11.021-22.184-24.326
	c0-15.729,10.618-30.646,27.021-30.646c6.851,0,12.497,2.286,16.523,7.792L65.99,25.946z M60.877,49.996
	c0-6.449-4.159-10.882-10.612-10.882c-7.791,0-13.312,6.986-13.312,13.973c0,6.181,3.636,11.021,10.224,11.021
	C55.505,64.105,60.877,57.657,60.877,49.996z"/>
</svg>
