<?xml version="1.0" encoding="utf-8"?>
<!-- Generator: Adobe Illustrator 15.1.0, SVG Export Plug-In . SVG Version: 6.00 Build 0)  -->
<!DOCTYPE svg PUBLIC "-//W3C//DTD SVG 1.1//EN" "http://www.w3.org/Graphics/SVG/1.1/DTD/svg11.dtd">
<svg version="1.1" id="Layer_1" xmlns="http://www.w3.org/2000/svg" xmlns:xlink="http://www.w3.org/1999/xlink" x="0px" y="0px"
	 width="67.488px" height="100px" viewBox="0 0 67.488 100" enable-background="new 0 0 67.488 100" xml:space="preserve">
<path fill="#88DB57" d="M67.487,65.037v-23.6l-7.285-0.472V26.458l0,0C60.202,11.868,48.333,0,33.744,0S7.286,11.868,7.286,26.458
	l0,0v14.507L0,41.437v23.6l0,0v9.179l0,0v23.601L33.744,100l0,0l0,0l33.743-2.186v-23.6h0.001L67.487,65.037L67.487,65.037z
	 M33.744,39.252L33.744,39.252l-18.471,1.196v-13.99l0,0c0-10.184,8.286-18.469,18.471-18.469c10.186,0,18.47,8.285,18.47,18.469
	l0,0v13.99L33.744,39.252L33.744,39.252z"/>
</svg>
