<?xml version="1.0" encoding="utf-8"?>
<!-- Generator: Adobe Illustrator 15.1.0, SVG Export Plug-In . SVG Version: 6.00 Build 0)  -->
<!DOCTYPE svg PUBLIC "-//W3C//DTD SVG 1.1//EN" "http://www.w3.org/Graphics/SVG/1.1/DTD/svg11.dtd">
<svg version="1.1" id="Layer_1" xmlns="http://www.w3.org/2000/svg" xmlns:xlink="http://www.w3.org/1999/xlink" x="0px" y="0px"
	 width="105px" height="105px" viewBox="-2.958 -2.5 105 105" enable-background="new -2.958 -2.5 105 105" xml:space="preserve">
<path fill="#88DB57" d="M49.541,0C22.198-0.018,0.025,22.375,0,49.974C0.025,77.619,22.198,100.009,49.541,100
	c27.354,0.009,49.523-22.381,49.542-50.026C99.064,22.375,76.894-0.018,49.541,0z M49.541,88.48
	c-21.04,0-38.097-17.23-38.075-38.507C11.443,28.741,28.501,11.512,49.541,11.52c21.049-0.008,38.108,17.222,38.131,38.454
	C87.649,71.25,70.588,88.48,49.541,88.48z"/>
<path fill="#88DB57" d="M44.402,67.657L55.6,67.605V58.95c-0.025-2.351,1.068-4.572,4.001-6.489
	c2.938-1.932,11.129-5.834,11.142-16.118c-0.013-10.245-8.615-17.3-15.849-18.82c-7.225-1.474-15.058-0.489-20.605,5.625
	c-4.988,5.427-6.037,9.742-6.057,19.254h11.195v-2.217c-0.022-5.062,0.565-10.414,7.789-11.899c3.974-0.777,7.682,0.462,9.897,2.598
	c2.498,2.474,2.517,8.015-1.513,10.762l-6.275,4.273c-3.655,2.369-4.913,4.983-4.922,8.813L44.402,67.657L44.402,67.657z"/>
<polygon fill="#88DB57" points="44.35,83.506 44.35,72.041 55.653,72.041 55.653,83.506 "/>
</svg>
